<?xml version="1.0" encoding="utf-8"?>
<!-- Generator: Adobe Illustrator 24.3.0, SVG Export Plug-In . SVG Version: 6.00 Build 0)  -->
<svg version="1.1" id="Layer_1" xmlns="http://www.w3.org/2000/svg" xmlns:xlink="http://www.w3.org/1999/xlink" x="0px" y="0px"
	 viewBox="0 0 218 266.4" style="enable-background:new 0 0 218 266.4;" xml:space="preserve">
<style type="text/css">
	.st0{fill:#FFFFFF;stroke:#231F20;stroke-miterlimit:10;}
	.st1{fill:#67BD46;}
	.st2{fill:#FFFFFF;}
	.st3{font-family:'BerlinSansFB-Bold';}
	.st4{font-size:38.8973px;}
	.st5{fill:#224082;}
</style>
<path class="st0" d="M62.5,200.3"/>
<polygon class="st1" points="29.1,31 23,201.6 194.5,201.3 188.3,31 "/>
<polygon class="st2" points="30.6,161.2 66.9,98.4 59,93.4 71.8,72.7 113.9,96.6 65.1,180.8 "/>
<polygon class="st2" points="70,182.5 117.9,99 125.5,103.4 77.3,186.9 "/>
<polygon class="st2" points="80.9,189.5 128.8,106 170.3,129.9 158.3,150.1 150.7,146.3 119.2,201.8 102.5,202.4 "/>
<path class="st2" d="M115.2,95.2c-1.3,0.8-10.7-8.9-12.9-21.9c-1.3-7.5,0.6-11.5,1.5-13.1s2.7-5,6.1-5.8c6.3-1.6,12.5,6.8,12.9,7.3
	c4.4,6.2,3.9,13.3,3.5,18.1c-0.7,8.6-4,15.7-5,15.5c-1.1-0.2,3.2-10.7-1.4-22.1c-1.2-3.1-4.7-7.8-6.5-7.4c-2.1,0.5-3.2,8.3-3.2,9.8
	C110.4,87.5,116.2,94.6,115.2,95.2z"/>
<path class="st2" d="M128.1,99.9c-0.1,1.4,14.5,6.6,30.2,2.6c10.7-2.8,15.7-8.2,17.4-10.4s4.5-5.6,4.1-9.7c-0.8-7-10.1-10.5-11.7-11
	c-10.3-3.9-20.1,0.7-22.9,2c-13.4,6.2-20.4,22.5-19,21.4c2-1.6,13.1-11.4,22.9-14.2c5.4-1.6,12.6-0.1,14.3,3.2
	c1.2,2.3-1.5,7.3-5.2,9.6C145.4,101.2,128.2,98.4,128.1,99.9z"/>
<text transform="matrix(1 0 0 1 28.98 242.39)" class="st1 st3 st4">Gift </text>
<text transform="matrix(1 0 0 1 105.48 242.39)" class="st5 st3 st4">Store</text>
</svg>
