<?xml version="1.0" encoding="utf-8"?>
<!-- Generator: Adobe Illustrator 24.3.0, SVG Export Plug-In . SVG Version: 6.00 Build 0)  -->
<svg version="1.1" id="Layer_1" xmlns="http://www.w3.org/2000/svg" xmlns:xlink="http://www.w3.org/1999/xlink" x="0px" y="0px"
	 viewBox="0 0 218 266.4" style="enable-background:new 0 0 218 266.4;" xml:space="preserve">
<style type="text/css">
	.st0{fill:#FFFFFF;}
	.st1{fill:#FFFFFF;stroke:#231F20;stroke-miterlimit:10;}
	.st2{fill:#68BD46;}
</style>
<polygon class="st0" points="34.4,46.7 27.7,217.3 199.2,217.6 193.6,47.3 "/>
<path class="st1" d="M39.5,216.3"/>
<polygon class="st2" points="57.7,211.2 57.4,138.8 48.1,138.4 48,113.4 97.1,113.6 97.3,210.9 "/>
<polygon class="st2" points="115.2,210.9 114.7,113.6 162,113.4 162.4,137.2 153.9,137.8 154.6,211 140.4,211.2 "/>
<g>
	<path class="st2" d="M114.8,110.3c0.9,1.5,15.2-4.3,23.9-17c5.1-7.3,5.2-12.4,5.1-14.5c-0.1-2.1-0.2-6.6-3.2-9
		c-5.5-4.7-16,1.2-16.6,1.6c-7.5,4.4-10.6,12.2-12.6,17.4c-3.6,9.4-3.8,18.5-2.7,18.7c1.2,0.3,2.1-12.8,12.5-22.7
		c2.8-2.7,8.6-6,10.2-4.7c1.9,1.5-0.9,10.3-1.7,11.9C123.4,104.5,114.1,109.2,114.8,110.3z"/>
	<path class="st2" d="M99.5,109.2c-0.6,1.5-17.9,0.1-31.6-11.6c-9.3-8-11.7-16.1-12.3-19.3s-1.7-8.1,0.7-12.2c4.3-7,15.4-6.3,17.3-6
		c12.3,0.8,19.8,10.3,22,13c10.3,12.9,9.2,33.5,8.4,31.6c-1.2-2.6-7.4-18.3-15.9-25.9c-4.6-4.3-12.6-6.1-16-3.4
		c-2.4,1.9-2.1,8.4,0.4,12.6C81.5,102.3,100.1,107.5,99.5,109.2z"/>
</g>
<polygon class="st2" points="101.1,210.8 100.6,114.6 109.4,114.6 109.6,210.9 "/>
</svg>
