  <svg id="Layer_1" data-name="Layer 1" xmlns="http://www.w3.org/2000/svg" xmlns:xlink="http://www.w3.org/1999/xlink"
    viewBox="0 0 218.03 266.35">
    <defs>
      <clipPath id="clip-path" transform="translate(-223.81 -270.73)">
        <rect x="205.33" y="231.98" width="189.06" height="82.7" transform="translate(599.73 546.65) rotate(180)"
          style="fill:none" />
      </clipPath>
    </defs>
    <path d="M263.34,487" transform="translate(-223.81 -270.73)"
      style="fill:#fff;stroke:#231f20;stroke-miterlimit:10" />
    <polygon points="6.13 47.04 0 217.63 171.47 217.34 165.33 47.04 6.13 47.04" style="fill:#67bd46" />
    <polygon points="7.65 177.2 43.87 114.4 35.98 109.43 48.84 88.69 90.9 112.64 42.12 196.77 7.65 177.2"
      style="fill:#fff" />
    <polygon points="47.02 198.53 94.92 114.98 102.52 119.36 54.32 202.91 47.02 198.53" style="fill:#fff" />
    <polygon
      points="57.89 205.54 105.8 121.99 147.28 145.95 135.3 166.1 127.7 162.3 96.16 217.8 79.51 218.39 57.89 205.54"
      style="fill:#fff" />
    <path
      d="M316,381.93c-1.3.75-10.66-8.91-12.85-21.91-1.27-7.45.58-11.53,1.46-13.14s2.69-5,6.13-5.84c6.33-1.61,12.49,6.79,12.85,7.3,4.44,6.2,3.89,13.28,3.51,18.11-.68,8.63-4,15.7-5,15.48-1.15-.25,3.21-10.72-1.42-22.07-1.25-3.07-4.73-7.8-6.46-7.43-2.12.45-3.17,8.32-3.16,9.79C311.2,374.22,317.06,381.33,316,381.93Z"
      transform="translate(-223.81 -270.73)" style="fill:#fff" />
    <path
      d="M328.88,386.67c-.13,1.43,14.49,6.65,30.21,2.58,10.72-2.77,15.68-8.24,17.44-10.44s4.52-5.64,4.06-9.7c-.8-7-10.12-10.47-11.67-11.05-10.27-3.87-20.12.7-22.85,2-13.42,6.22-20.44,22.51-19,21.37,2-1.63,13.13-11.38,22.87-14.23,5.38-1.58,12.65-.08,14.34,3.18,1.18,2.27-1.5,7.31-5.16,9.58C346.2,387.9,329,385.14,328.88,386.67Z"
      transform="translate(-223.81 -270.73)" style="fill:#fff" /><text transform="translate(5.98 258.39)"
      style="font-size:38.8973388671875px;
      fill:#67bd46;
      font-family: 'Berlin Sans FB Demi', sans-serif;
      font-weight:700">Gift
      <tspan x="76.5" y="0" style="fill:#224082">Store</tspan></text>
    <g style="clip-path:url(#clip-path)">
      <path
        d="M267.31,315.2c0-24.56,19.26-44.47,43-44.47s43,19.91,43,44.47-19.26,44.46-43,44.46S267.31,339.75,267.31,315.2Zm43,35.8A34.34,34.34,0,1,0,276,316.67,34.34,34.34,0,0,0,310.33,351Z"
        transform="translate(-223.81 -270.73)" style="fill:#1d4484" />
    </g>
  </svg>
